<svg xmlns="http://www.w3.org/2000/svg" xml:space="preserve" width="128" height="128" viewBox="0 0 33.87 33.87"><rect width="28.62" height="28.62" x="6.43" y="-2.34" rx="2.65" ry="2.65" style="display:inline;fill:#fbce2f;fill-opacity:1;stroke:none;stroke-width:.529164;stroke-linecap:round;stroke-linejoin:round" transform="rotate(15)"/><path d="M21.3 12.2h-8.73a.36.36 0 0 0-.37.37v2.18h9.46v-2.18a.36.36 0 0 0-.36-.37zm.36 3.64h-6.18v5.82h5.82a.36.36 0 0 0 .36-.36zm-9.1-4.73h8.74a1.46 1.46 0 0 1 1.45 1.46v8.73a1.46 1.46 0 0 1-1.45 1.45h-8.73a1.46 1.46 0 0 1-1.46-1.45v-8.73a1.46 1.46 0 0 1 1.46-1.46Z" style="fill:#1a1a1a;stroke-width:.264583"/></svg>